Coordinates
version=1
nRows=23
nColumns=27
inDegrees=yes

Units are S.I. units (second, meters, Newtons, ...)
If the header above contains a line with 'inDegrees', this indicates whether rotational values are in degrees (yes) or radians (no).

endheader
time	pelvis_rotation	pelvis_tilt	pelvis_list	pelvis_tx	pelvis_ty	pelvis_tz	hip_flexion_r	hip_adduction_r	hip_rotation_r	knee_angle_r	knee_rotation_r	knee_adduction_r	knee_angle_r_beta	ankle_angle_r	subtalar_angle_r	mtp_angle_r	hip_flexion_l	hip_adduction_l	hip_rotation_l	knee_angle_l	knee_rotation_l	knee_adduction_l	knee_angle_l_beta	ankle_angle_l	subtalar_angle_l	mtp_angle_l
     10.65500000	      3.41069442	    -11.23174429	      0.12088275	     -0.00312659	      0.91225036	     -1.20148792	     20.23012633	     -4.83397403	    -26.73679686	     11.80922440	      0.00000000	      8.81428446	      0.20610985	      0.78521087	      0.00000000	      0.00000000	     21.55639530	     -4.55064051	    -14.84253898	     10.91101904	      0.00000000	     -6.47916929	      0.19043321	     -2.48899814	      0.00000000	      0.00000000
     10.66000000	      3.34776821	    -11.49670001	      0.08105717	     -0.00335852	      0.91230418	     -1.20147030	     20.51754813	     -4.78085703	    -26.66750375	     11.79837263	      0.00000000	      8.80983413	      0.20592045	      0.75730274	      0.00000000	      0.00000000	     21.87746684	     -4.61617158	    -14.92798478	     11.01063276	      0.00000000	     -6.51617413	      0.19217179	     -2.41913997	      0.00000000	      0.00000000
     10.66500000	      3.08588436	    -12.28690019	      0.08985264	     -0.00509378	      0.91219931	     -1.20127319	     21.62987438	     -4.76077675	    -25.54469169	     12.13513904	      0.00000000	      7.96171767	      0.21179813	      0.78257727	      0.00000000	      0.00000000	     22.87282175	     -4.68936214	    -14.68919088	     11.27123424	      0.00000000	     -5.92064868	      0.19672015	     -2.40627695	      0.00000000	      0.00000000
     10.67000000	      3.21994773	    -11.95726533	      0.18958825	     -0.00386031	      0.91240512	     -1.20164811	     21.11479000	     -4.91378046	    -26.51590902	     11.96194104	      0.00000000	      8.82910972	      0.20877526	      0.80782446	      0.00000000	      0.00000000	     22.28655909	     -4.50741490	    -14.89040503	     10.89417721	      0.00000000	     -6.34636204	      0.19013926	     -2.50754471	      0.00000000	      0.00000000
     10.67500000	      3.17033379	    -12.22752089	      0.13931419	     -0.00408670	      0.91245926	     -1.20161701	     21.42093496	     -4.86166098	    -26.47058859	     11.98624452	      0.00000000	      8.81899131	      0.20919943	      0.77784362	      0.00000000	      0.00000000	     22.61777594	     -4.58248979	    -14.96535853	     10.99365498	      0.00000000	     -6.38090701	      0.19187548	     -2.46644752	      0.00000000	      0.00000000
     10.68000000	      3.09413613	    -12.48487446	      0.14751040	     -0.00438218	      0.91251448	     -1.20162066	     21.73237338	     -4.86529011	    -26.38519459	     12.02521029	      0.00000000	      8.82288147	      0.20987951	      0.77330893	      0.00000000	      0.00000000	     22.88325072	     -4.58973541	    -14.98713651	     10.99669235	      0.00000000	     -6.33203289	      0.19192849	     -2.46854788	      0.00000000	      0.00000000
     10.68500000	      3.02957803	    -12.74261356	      0.20428881	     -0.00469698	      0.91256127	     -1.20170317	     22.06975800	     -4.93599748	    -26.29850314	     12.12149229	      0.00000000	      8.82649814	      0.21155995	      0.80839258	      0.00000000	      0.00000000	     23.13045773	     -4.53548278	    -14.96480205	     10.96005725	      0.00000000	     -6.24329211	      0.19128909	     -2.51121675	      0.00000000	      0.00000000
     10.69000000	      1.43783928	    -13.72330496	      0.48254689	     -0.00731899	      0.91221409	     -1.20116898	     23.98226344	     -4.98695646	    -23.63348258	     13.10867609	      0.00000000	      7.84924534	      0.22878956	      1.00551061	      0.00000000	      0.00000000	     24.18170750	     -4.70655495	    -16.65080407	     11.30478372	      0.00000000	     -6.05443176	      0.19730570	     -2.41689750	      0.00000000	      0.00000000
     10.69500000	      2.92704507	    -13.26010490	      0.20237332	     -0.00526628	      0.91269196	     -1.20172349	     22.68613938	     -4.93638762	    -26.18797051	     12.20039303	      0.00000000	      8.82535911	      0.21293703	      0.77389071	      0.00000000	      0.00000000	     23.67597162	     -4.55518902	    -14.95424089	     10.97332609	      0.00000000	     -6.12783429	      0.19152067	     -2.52532396	      0.00000000	      0.00000000
     10.70000000	      2.85758574	    -13.52429492	      0.23643777	     -0.00559783	      0.91274627	     -1.20175753	     23.02699401	     -4.97701421	    -26.10452843	     12.28315194	      0.00000000	      8.82840413	      0.21438144	      0.78804835	      0.00000000	      0.00000000	     23.93747520	     -4.52988772	    -14.94864723	     10.94863000	      0.00000000	     -6.04756883	      0.19108964	     -2.55994530	      0.00000000	      0.00000000
     10.70500000	      2.81790896	    -13.79869549	      0.25669480	     -0.00594900	      0.91280905	     -1.20179143	     23.36965247	     -5.00879790	    -26.05842934	     12.35673994	      0.00000000	      8.82885552	      0.21566580	      0.78623128	      0.00000000	      0.00000000	     24.22263507	     -4.51152092	    -14.89735199	     10.93773944	      0.00000000	     -5.95834168	      0.19089957	     -2.58666038	      0.00000000	      0.00000000
     10.71000000	      2.77579446	    -14.06993768	      0.26717331	     -0.00627554	      0.91287214	     -1.20180381	     23.69643120	     -5.02066313	    -26.00535045	     12.40145582	      0.00000000	      8.82359020	      0.21644624	      0.78016840	      0.00000000	      0.00000000	     24.51235783	     -4.50893322	    -14.87944487	     10.94494530	      0.00000000	     -5.89142440	      0.19102533	     -2.61265963	      0.00000000	      0.00000000
     10.71500000	      2.49609222	    -15.01072897	      0.25019877	     -0.00831417	      0.91273747	     -1.20152390	     25.01398025	     -4.96579173	    -24.86337074	     12.79005283	      0.00000000	      7.96099275	      0.22322853	      0.80652952	      0.00000000	      0.00000000	     25.73799610	     -4.63234401	    -14.69078526	     11.32523769	      0.00000000	     -5.36317310	      0.19766269	     -2.53619237	      0.00000000	      0.00000000
     10.72000000	      2.43731556	    -15.29795707	      0.26324976	     -0.00876518	      0.91278863	     -1.20154049	     25.38303190	     -4.98455888	    -24.76874354	     12.86361111	      0.00000000	      7.93504309	      0.22451237	      0.75130122	      0.00000000	      0.00000000	     26.06425586	     -4.63436223	    -14.68645000	     11.35860591	      0.00000000	     -5.28799993	      0.19824507	     -2.54994196	      0.00000000	      0.00000000
     10.72500000	      2.38632950	    -15.56820952	      0.29153097	     -0.00914661	      0.91284516	     -1.20155165	     25.71574029	     -5.01243725	    -24.69770174	     12.91734923	      0.00000000	      7.94366202	      0.22545027	      0.79296183	      0.00000000	      0.00000000	     26.34879968	     -4.61502897	    -14.65725676	     11.35409140	      0.00000000	     -5.20933151	      0.19816628	     -2.59997846	      0.00000000	      0.00000000
     10.73000000	      2.35360921	    -15.87609543	      0.42360569	     -0.00964986	      0.91285283	     -1.20170823	     26.18281472	     -5.19044316	    -24.68014821	     13.15300759	      0.00000000	      7.98035433	      0.22956329	      0.88149845	      0.00000000	      0.00000000	     26.64828457	     -4.47463867	    -14.57953425	     11.28879321	      0.00000000	     -5.05846519	      0.19702661	     -2.67900936	      0.00000000	      0.00000000
     10.73500000	      2.32196631	    -16.22713020	      0.42262570	     -0.01020750	      0.91285707	     -1.20167604	     26.64416261	     -5.21003202	    -24.66278298	     13.28354444	      0.00000000	      7.98612261	      0.23184159	      0.88978819	      0.00000000	      0.00000000	     27.08673761	     -4.49594839	    -14.53163687	     11.39526866	      0.00000000	     -4.99971213	      0.19888496	     -2.68132091	      0.00000000	      0.00000000
     10.74000000	      2.28051544	    -16.51570103	      0.42528927	     -0.01068651	      0.91290166	     -1.20166812	     27.00942367	     -5.21590575	    -24.58339185	     13.34801739	      0.00000000	      7.98134977	      0.23296685	      0.87941942	      0.00000000	      0.00000000	     27.42132884	     -4.50398378	    -14.47791009	     11.43075917	      0.00000000	     -4.90980462	      0.19950438	     -2.69110811	      0.00000000	      0.00000000
     10.74500000	      2.51820775	    -16.13103812	      0.42292728	     -0.00947292	      0.91314067	     -1.20187886	     26.37081455	     -5.27396670	    -25.66313695	     13.07757436	      0.00000000	      8.83475011	      0.22824673	      0.83115462	      0.00000000	      0.00000000	     26.84566951	     -4.41407296	    -14.52165235	     11.13646962	      0.00000000	     -5.28624202	      0.19436806	     -2.77281883	      0.00000000	      0.00000000
     10.75000000	      2.43496477	    -16.44466017	      0.39504846	     -0.01003076	      0.91315067	     -1.20178662	     26.78480761	     -5.24441427	    -25.57246380	     13.17042819	      0.00000000	      8.81844469	      0.22986734	      0.80638104	      0.00000000	      0.00000000	     27.25187005	     -4.48113810	    -14.56762894	     11.26117776	      0.00000000	     -5.27033482	      0.19654463	     -2.75690639	      0.00000000	      0.00000000
     10.75500000	      2.09457365	    -17.47950635	      0.34882640	     -0.01233855	      0.91290609	     -1.20146865	     28.26828159	     -5.15240984	    -24.37177129	     13.63764874	      0.00000000	      7.94776535	      0.23802187	      0.86775856	      0.00000000	      0.00000000	     28.69273762	     -4.67944579	    -14.56524492	     11.84690271	      0.00000000	     -4.89133032	      0.20676746	     -2.60106247	      0.00000000	      0.00000000
     10.76000000	      1.93939831	    -17.72142344	      0.35499191	     -0.01282596	      0.91291410	     -1.20135383	     28.59862633	     -5.11788002	    -24.11549797	     13.69094447	      0.00000000	      7.92739501	      0.23895206	      0.89659561	      0.00000000	      0.00000000	     28.99825223	     -4.73290718	    -14.69983030	     11.95198309	      0.00000000	     -4.85920677	      0.20860146	     -2.65797695	      0.00000000	      0.00000000
     10.76500000	      2.33503490	    -17.37814493	      0.48763736	     -0.01179851	      0.91307953	     -1.20184276	     28.09124107	     -5.41280051	    -25.42608739	     13.62937091	      0.00000000	      8.84550718	      0.23787740	      0.90402675	      0.00000000	      0.00000000	     28.45571382	     -4.44093970	    -14.44938837	     11.56741673	      0.00000000	     -5.05700564	      0.20188951	     -2.75877659	      0.00000000	      0.00000000
